<svg aria-hidden="true" style="position: absolute; width: 0; height: 0; overflow: hidden;" version="1.1" xmlns="http://www.w3.org/2000/svg" xmlns:xlink="http://www.w3.org/1999/xlink">
<defs>
<symbol id="icon-cliente-2" viewBox="0 0 64 32">
<path d="M30.257 3.636h-0.082c-0.127-0.008-0.254-0.011-0.38-0.014v0h-0.275c-0.24 0-0.484 0.006-0.727 0.018-0.018-0.001-0.037-0.001-0.055 0-2.2 0.125-4.356 0.675-6.349 1.62l-0.261 0.126v13.368l0.611-0.207c0.536-0.184 1.107-0.35 1.698-0.504 1.598-0.41 3.239-0.628 4.888-0.649v1.756c-0.218 0.002-0.431 0.008-0.643 0.018h-0.050c-1.269 0.070-2.528 0.263-3.76 0.577-1.56 0.391-3.065 0.977-4.48 1.746v-17.145c1.469-0.857 3.051-1.5 4.7-1.912 1.447-0.374 2.935-0.566 4.429-0.571h0.258c0.309 0.008 0.609 0.022 0.892 0.043 0.744 0.052 1.483 0.17 2.207 0.352v1.729c-0.703-0.164-1.418-0.272-2.138-0.322-0.015-0.001-0.029-0.002-0.044-0.004-0.149-0.013-0.298-0.025-0.437-0.025zM33.3 5.403c0.383 0.029 0.781 0.043 1.182 0.043 1.571-0.006 3.135-0.206 4.657-0.597 1.559-0.392 3.064-0.979 4.478-1.747v16.84c-1.47 0.856-3.053 1.5-4.701 1.912-1.448 0.372-2.935 0.564-4.429 0.57-1.132 0.009-2.261-0.124-3.36-0.396v-16.949c0.26 0.060 0.527 0.115 0.799 0.161 0.446 0.075 0.916 0.13 1.375 0.164zM41.87 5.533l-0.611 0.206c-0.562 0.189-1.129 0.358-1.698 0.508-1.659 0.426-3.363 0.645-5.075 0.651-0.399 0-0.765-0.011-1.12-0.034l-0.487-0.032v13.752l0.418 0.037c0.388 0.034 0.788 0.051 1.191 0.051 1.349-0.006 2.691-0.18 3.997-0.517 1.075-0.27 2.122-0.646 3.123-1.122l0.261-0.126v-13.373z"></path>
<path d="M21.577 27.351c-0.088-0.091-0.194-0.163-0.311-0.21s-0.243-0.069-0.369-0.065c-0.134-0.002-0.268 0.023-0.392 0.074-0.114 0.046-0.218 0.114-0.305 0.201-0.086 0.087-0.153 0.192-0.197 0.307-0.048 0.121-0.072 0.249-0.070 0.379v2.291c-0.005 0.161 0.025 0.322 0.090 0.47 0.054 0.117 0.132 0.222 0.229 0.307 0.092 0.077 0.199 0.133 0.315 0.163 0.111 0.031 0.226 0.047 0.342 0.048 0.128 0.001 0.254-0.026 0.37-0.080 0.114-0.050 0.218-0.122 0.305-0.212 0.085-0.089 0.153-0.193 0.2-0.307 0.049-0.116 0.074-0.24 0.073-0.365v-0.256h-0.599v0.204c0.002 0.070-0.010 0.139-0.035 0.204-0.020 0.049-0.049 0.093-0.087 0.129-0.037 0.030-0.080 0.052-0.125 0.066-0.040 0.013-0.083 0.021-0.125 0.021-0.053 0.006-0.108-0.002-0.157-0.023s-0.092-0.056-0.124-0.099c-0.056-0.092-0.084-0.199-0.079-0.307v-2.136c-0.004-0.118 0.021-0.236 0.073-0.342 0.031-0.048 0.075-0.087 0.127-0.111s0.109-0.034 0.166-0.027c0.052-0.002 0.103 0.009 0.149 0.031s0.087 0.056 0.118 0.098c0.067 0.088 0.102 0.196 0.099 0.307v0.198h0.593v-0.233c0.001-0.137-0.024-0.273-0.073-0.401-0.044-0.12-0.112-0.23-0.2-0.322z"></path>
<path d="M25.134 27.324c-0.191-0.161-0.432-0.25-0.681-0.252-0.122 0.001-0.243 0.022-0.357 0.064-0.116 0.042-0.224 0.105-0.316 0.187-0.099 0.089-0.178 0.199-0.232 0.321-0.060 0.14-0.090 0.291-0.087 0.444v2.197c-0.004 0.155 0.026 0.308 0.087 0.45 0.054 0.118 0.133 0.223 0.232 0.307 0.092 0.085 0.199 0.151 0.316 0.193 0.115 0.042 0.235 0.064 0.357 0.064s0.243-0.022 0.357-0.064c0.119-0.043 0.229-0.109 0.324-0.193 0.096-0.086 0.172-0.19 0.226-0.307 0.061-0.142 0.091-0.295 0.087-0.45v-2.197c0.003-0.152-0.027-0.304-0.087-0.444-0.053-0.121-0.13-0.23-0.226-0.321zM24.855 30.286c0.005 0.059-0.003 0.117-0.024 0.172s-0.053 0.105-0.095 0.145c-0.079 0.066-0.179 0.103-0.282 0.103s-0.203-0.036-0.282-0.103c-0.042-0.041-0.075-0.090-0.095-0.145s-0.029-0.114-0.024-0.172v-2.197c-0.005-0.059 0.003-0.117 0.024-0.172s0.053-0.105 0.095-0.145c0.079-0.066 0.179-0.103 0.282-0.103s0.203 0.036 0.282 0.103c0.042 0.041 0.075 0.090 0.095 0.145s0.029 0.114 0.024 0.172v2.197z"></path>
<path d="M29.807 31.267v-4.159h-0.576l-0.756 2.202h-0.011l-0.762-2.202h-0.57v4.159h0.594v-2.53h0.011l0.582 1.789h0.296l0.587-1.789h0.011v2.53h0.594z"></path>
<path d="M33.182 27.4c-0.092-0.103-0.207-0.181-0.336-0.227-0.139-0.045-0.285-0.067-0.431-0.064h-0.883v4.159h0.593v-1.624h0.305c0.185 0.008 0.369-0.031 0.535-0.114 0.135-0.075 0.247-0.185 0.325-0.318 0.069-0.111 0.115-0.234 0.136-0.362 0.023-0.157 0.034-0.315 0.032-0.473 0.006-0.2-0.014-0.399-0.058-0.594-0.040-0.144-0.115-0.275-0.218-0.382zM32.877 28.668c-0.003 0.075-0.021 0.149-0.055 0.216-0.034 0.064-0.087 0.115-0.153 0.146-0.088 0.039-0.184 0.057-0.28 0.052h-0.27v-1.414h0.305c0.092-0.005 0.184 0.013 0.267 0.052 0.061 0.035 0.11 0.089 0.139 0.154 0.032 0.073 0.050 0.152 0.052 0.232 0 0.088 0 0.18 0 0.276s0.006 0.197 0 0.286h-0.006z"></path>
<path d="M35.99 27.108h-0.486l-0.916 4.159h0.593l0.174-0.894h0.808l0.174 0.894h0.593l-0.939-4.159zM35.443 29.807l0.292-1.508h0.011l0.29 1.508h-0.593z"></path>
<path d="M39.819 29.614h-0.011l-0.895-2.506h-0.57v4.159h0.593v-2.501h0.012l0.906 2.501h0.557v-4.159h-0.593v2.506z"></path>
<path d="M43.44 27.108l-0.477 1.654h-0.012l-0.477-1.654h-0.628l0.814 2.401v1.758h0.593v-1.758l0.814-2.401h-0.628z"></path>
</symbol>
<symbol id="icon-cliente-3" viewBox="0 0 64 32">
<path d="M21.981 29.699c0.010 0 0.019 0.002 0.028 0.006s0.017 0.008 0.023 0.014l0.132 0.126c-0.102 0.102-0.229 0.183-0.37 0.239-0.166 0.061-0.345 0.090-0.525 0.086-0.169 0.003-0.337-0.024-0.494-0.080-0.141-0.051-0.268-0.128-0.372-0.226-0.106-0.101-0.188-0.22-0.24-0.349-0.058-0.144-0.086-0.295-0.084-0.448-0.002-0.153 0.028-0.306 0.090-0.449 0.058-0.13 0.144-0.249 0.255-0.349 0.112-0.098 0.247-0.176 0.395-0.227 0.162-0.055 0.335-0.082 0.509-0.080 0.162-0.003 0.322 0.021 0.472 0.073 0.13 0.049 0.25 0.117 0.354 0.202l-0.11 0.134c-0.008 0.009-0.017 0.018-0.028 0.024-0.013 0.008-0.029 0.011-0.044 0.010-0.017-0.001-0.034-0.006-0.048-0.014l-0.059-0.036-0.082-0.046c-0.036-0.017-0.072-0.032-0.11-0.044-0.049-0.015-0.099-0.027-0.15-0.036-0.065-0.010-0.13-0.015-0.196-0.014-0.125-0.001-0.249 0.019-0.365 0.060-0.108 0.038-0.206 0.096-0.286 0.169-0.082 0.078-0.145 0.169-0.186 0.269-0.046 0.114-0.069 0.234-0.067 0.355-0.002 0.123 0.021 0.245 0.067 0.36 0.040 0.099 0.102 0.19 0.183 0.268 0.075 0.073 0.169 0.129 0.273 0.166 0.107 0.039 0.223 0.058 0.339 0.057 0.067 0.001 0.134-0.003 0.201-0.011 0.109-0.012 0.213-0.044 0.305-0.096 0.046-0.026 0.090-0.056 0.13-0.089 0.017-0.014 0.039-0.022 0.063-0.023z"></path>
<path d="M25.784 29.066c0.002 0.152-0.028 0.303-0.089 0.445-0.054 0.129-0.138 0.247-0.248 0.345s-0.242 0.176-0.389 0.227c-0.322 0.107-0.679 0.107-1.001 0-0.146-0.052-0.277-0.129-0.387-0.227-0.11-0.1-0.195-0.219-0.25-0.349-0.119-0.288-0.119-0.603 0-0.891 0.056-0.13 0.141-0.249 0.25-0.35 0.11-0.095 0.242-0.17 0.387-0.219 0.322-0.109 0.679-0.109 1.001 0 0.146 0.052 0.279 0.129 0.388 0.227 0.108 0.099 0.193 0.217 0.249 0.345 0.061 0.143 0.091 0.295 0.089 0.448zM25.438 29.066c0.003-0.121-0.019-0.242-0.063-0.358-0.037-0.099-0.097-0.19-0.176-0.267-0.077-0.073-0.172-0.131-0.278-0.169-0.234-0.078-0.493-0.078-0.728 0-0.106 0.038-0.201 0.095-0.278 0.169-0.080 0.077-0.141 0.168-0.178 0.267-0.084 0.233-0.084 0.482 0 0.715 0.037 0.099 0.098 0.19 0.178 0.267 0.077 0.073 0.172 0.13 0.278 0.167 0.235 0.076 0.493 0.076 0.728 0 0.106-0.037 0.201-0.094 0.278-0.167 0.079-0.078 0.139-0.169 0.176-0.267 0.044-0.115 0.065-0.236 0.063-0.358z"></path>
<path d="M28.378 29.441l0.035 0.080c0.013-0.029 0.025-0.054 0.038-0.080 0.013-0.027 0.027-0.053 0.043-0.079l0.841-1.329c0.016-0.023 0.031-0.037 0.048-0.041 0.022-0.006 0.046-0.008 0.069-0.007h0.249v2.161h-0.295v-1.589c0-0.020 0-0.043 0-0.067-0.002-0.025-0.002-0.050 0-0.074l-0.846 1.347c-0.011 0.020-0.028 0.037-0.049 0.049s-0.047 0.018-0.072 0.018h-0.048c-0.026 0-0.051-0.006-0.072-0.018s-0.039-0.029-0.049-0.049l-0.871-1.356c0 0.026 0 0.052 0 0.077s0 0.049 0 0.069v1.589h-0.285v-2.157h0.249c0.023-0.001 0.047 0.001 0.069 0.007 0.020 0.009 0.037 0.023 0.046 0.041l0.859 1.33c0.017 0.025 0.031 0.050 0.043 0.077z"></path>
<path d="M31.544 29.334v0.809h-0.329v-2.158h0.734c0.139-0.002 0.277 0.014 0.41 0.047 0.107 0.026 0.205 0.072 0.29 0.134 0.073 0.058 0.13 0.131 0.165 0.212 0.039 0.088 0.058 0.182 0.056 0.276 0.001 0.095-0.019 0.189-0.061 0.276-0.040 0.083-0.1 0.157-0.178 0.216-0.084 0.065-0.184 0.114-0.291 0.143-0.128 0.036-0.262 0.052-0.397 0.050l-0.398-0.006zM31.544 29.102h0.398c0.087 0.001 0.173-0.010 0.255-0.033 0.068-0.020 0.131-0.052 0.184-0.093 0.049-0.040 0.088-0.088 0.112-0.143 0.027-0.058 0.040-0.119 0.039-0.182 0.004-0.060-0.007-0.12-0.033-0.176s-0.065-0.106-0.115-0.147c-0.126-0.085-0.284-0.127-0.443-0.116h-0.398v0.89z"></path>
<path d="M35.969 30.146h-0.26c-0.026 0.001-0.052-0.006-0.072-0.020-0.019-0.013-0.033-0.031-0.043-0.050l-0.224-0.522h-1.124l-0.232 0.522c-0.008 0.019-0.023 0.036-0.041 0.049-0.021 0.015-0.047 0.022-0.074 0.021h-0.26l0.988-2.161h0.342l1.001 2.161zM34.339 29.344h0.928l-0.392-0.88c-0.030-0.066-0.055-0.134-0.074-0.203l-0.038 0.113c-0.012 0.034-0.025 0.066-0.036 0.092l-0.388 0.878z"></path>
<path d="M37.391 27.995c0.020 0.009 0.037 0.023 0.049 0.039l1.44 1.629c0-0.026 0-0.051 0-0.076s0-0.049 0-0.072v-1.53h0.295v2.161h-0.165c-0.023 0.001-0.047-0.004-0.068-0.013-0.020-0.010-0.038-0.024-0.053-0.040l-1.439-1.628c0.002 0.025 0.002 0.050 0 0.074 0 0.024 0 0.046 0 0.066v1.54h-0.295v-2.161h0.175c0.020-0 0.041 0.003 0.059 0.010z"></path>
<path d="M41.602 29.287v0.858h-0.329v-0.858l-0.91-1.302h0.295c0.025-0.001 0.050 0.005 0.071 0.019 0.018 0.014 0.033 0.030 0.044 0.049l0.57 0.84c0.023 0.036 0.043 0.069 0.059 0.1s0.030 0.062 0.041 0.092l0.043-0.093c0.016-0.034 0.035-0.067 0.056-0.099l0.561-0.845c0.012-0.017 0.026-0.032 0.043-0.046 0.020-0.015 0.045-0.022 0.071-0.021h0.298l-0.912 1.307z"></path>
<path d="M28.215 24.358c0.143 0.016 0.288 0.029 0.435 0.040 2.221-0.863 4.1-2.276 5.402-4.062s1.969-3.866 1.918-5.98l-2.448-2.127c0.498 2.25 0.265 4.577-0.672 6.719s-2.542 4.015-4.635 5.41z"></path>
<path d="M27.341 24.259l0.066 0.011c2.236-1.39 3.941-3.331 4.895-5.571s1.111-4.678 0.452-6.998l-3.487-3.029c1.41 2.49 1.978 5.277 1.637 8.036s-1.576 5.378-3.563 7.551z"></path>
<path d="M39.166 16.854c-0.592 2.322-2.031 4.417-4.102 5.973-0.605 0.457-1.257 0.864-1.949 1.216 1.687-0.431 3.237-1.192 4.531-2.226s2.298-2.312 2.934-3.735l-1.414-1.227z"></path>
<path d="M38.611 16.512l-2.013-1.749c-0.038 1.994-0.691 3.943-1.89 5.644s-2.9 3.092-4.927 4.029h0.010c0.452-0 0.903-0.024 1.352-0.070 1.894-0.672 3.568-1.741 4.871-3.111s2.196-3 2.598-4.743z"></path>
<path d="M27.632 7.395l-2.402-2.090c-2.147 0.721-3.994 1.988-5.298 3.636s-2.006 3.599-2.013 5.599v0c0.008 2.21 0.864 4.354 2.433 6.094s3.76 2.975 6.228 3.511c2.203-2.332 3.493-5.213 3.682-8.225s-0.732-5.998-2.63-8.525z"></path>
<path d="M44.16 16.19c-0.009-2.622-1.211-5.134-3.345-6.988s-5.025-2.899-8.043-2.906c-1.394-0.001-2.777 0.222-4.078 0.659l14.705 12.777c0.504-1.129 0.761-2.33 0.761-3.541z"></path>
</symbol>
<symbol id="icon-cliente-5" viewBox="0 0 64 32">
<path d="M16.155 27.062c0.147 0.167 0.226 0.376 0.221 0.59 0.008 0.14-0.019 0.279-0.079 0.408s-0.15 0.244-0.264 0.337c-0.286 0.198-0.64 0.294-0.997 0.272h-1.753v-3.738h1.717c0.339-0.021 0.675 0.067 0.951 0.248 0.111 0.085 0.199 0.192 0.256 0.314s0.084 0.253 0.077 0.386c0.010 0.206-0.061 0.409-0.199 0.572-0.133 0.149-0.317 0.251-0.523 0.292 0.233 0.039 0.442 0.152 0.592 0.32zM14.099 26.498h0.734c0.167 0.011 0.332-0.033 0.467-0.124 0.055-0.046 0.098-0.102 0.125-0.166s0.038-0.132 0.032-0.2c0.005-0.068-0.006-0.135-0.033-0.199s-0.069-0.12-0.123-0.167c-0.138-0.094-0.309-0.139-0.481-0.126h-0.722v0.981zM15.371 27.932c0.059-0.047 0.105-0.105 0.135-0.171s0.043-0.137 0.038-0.208c0.004-0.072-0.009-0.144-0.040-0.211s-0.078-0.126-0.138-0.173c-0.144-0.098-0.32-0.145-0.499-0.135h-0.77v1.028h0.78c0.176 0.009 0.349-0.036 0.493-0.13z"></path>
<path d="M19.665 28.67l-0.955-1.461h-0.359v1.461h-0.822v-3.738h1.556c0.392-0.025 0.78 0.089 1.083 0.318 0.217 0.203 0.349 0.47 0.37 0.754s-0.069 0.565-0.254 0.793c-0.192 0.201-0.454 0.336-0.742 0.38l1.017 1.494h-0.894zM18.351 26.699h0.672c0.467 0 0.7-0.189 0.7-0.566 0.005-0.077-0.008-0.154-0.038-0.227s-0.075-0.138-0.134-0.194c-0.148-0.112-0.337-0.167-0.529-0.152h-0.68l0.008 1.138z"></path>
<path d="M24.157 27.917h-1.637l-0.289 0.752h-0.862l1.504-3.696h0.931l1.498 3.696h-0.862l-0.283-0.752zM23.938 27.351l-0.598-1.578-0.598 1.578h1.197z"></path>
<path d="M29.78 28.669h-0.816l-1.829-2.542v2.542h-0.814v-3.738h0.814l1.829 2.557v-2.557h0.816v3.738z"></path>
<path d="M34.435 27.775c-0.169 0.282-0.426 0.512-0.738 0.659-0.355 0.164-0.749 0.245-1.147 0.236h-1.452v-3.738h1.452c0.397-0.009 0.791 0.070 1.147 0.23 0.312 0.144 0.57 0.371 0.738 0.652 0.168 0.304 0.255 0.64 0.255 0.981s-0.087 0.677-0.255 0.981zM33.501 27.685c0.233-0.248 0.361-0.565 0.361-0.892s-0.128-0.644-0.361-0.892c-0.281-0.225-0.648-0.339-1.021-0.318h-0.566v2.42h0.566c0.373 0.021 0.74-0.093 1.021-0.318z"></path>
<path d="M24.668 4.138c0 0 10.529 3.64 10.306 8.906v8.908c0 0-10.521-3.641-10.302-8.908l-0.004-8.906z"></path>
<path d="M44.353 19.867c1.989-1.253 4.289-2.029 6.69-2.257v-2.789c-2.767 0.976-5.113 2.747-6.69 5.046z"></path>
<path d="M43.159 20.707c1.628-3.001 4.449-5.316 7.884-6.47v-8.035c0 0-14.995 5.185-14.678 12.685v12.683c0 0 0.668-0.232 1.719-0.667 0-0.405 0-0.814 0.048-1.225 0.31-3.482 2.118-6.709 5.026-8.97z"></path>
<path d="M41.733 25.419c0.079-0.88 0.255-1.75 0.525-2.597-1.811 1.953-2.907 4.377-3.135 6.93-0.022 0.241-0.034 0.482-0.040 0.73 0.852-0.374 1.843-0.842 2.884-1.392-0.266-1.208-0.344-2.444-0.233-3.672z"></path>
<path d="M42.329 25.465c-0.1 1.111-0.038 2.23 0.185 3.326 4.097-2.244 8.7-5.712 8.523-9.904v-0.365c-2.927 0.3-5.665 1.471-7.795 3.335-0.498 1.155-0.806 2.371-0.913 3.609z"></path>
</symbol>
<symbol id="icon-cliente-6" viewBox="0 0 67 32">
<path d="M33.724 15.285c-0.315-0.419-0.466-0.915-0.43-1.414v-2.050c0-0.628 0.142-1.106 0.428-1.433s0.775-0.489 1.469-0.488c0.652 0 1.115 0.139 1.389 0.417 0.299 0.355 0.444 0.789 0.411 1.226v0.482h-1.167v-0.488c0.004-0.16-0.007-0.319-0.034-0.478-0.017-0.108-0.076-0.208-0.167-0.284-0.12-0.082-0.271-0.121-0.423-0.111-0.16-0.010-0.318 0.031-0.444 0.117-0.102 0.084-0.169 0.193-0.193 0.313-0.033 0.167-0.049 0.337-0.046 0.507v2.488c-0.018 0.24 0.033 0.48 0.15 0.699 0.058 0.074 0.139 0.133 0.233 0.169s0.198 0.050 0.301 0.039c0.149 0.011 0.298-0.030 0.413-0.113 0.095-0.082 0.156-0.188 0.174-0.302 0.027-0.165 0.039-0.332 0.036-0.498v-0.505h1.167v0.461c0.033 0.456-0.109 0.909-0.403 1.289-0.268 0.304-0.725 0.457-1.396 0.457s-1.179-0.163-1.466-0.501z"></path>
<path d="M38.583 15.306c-0.295-0.319-0.442-0.784-0.442-1.399v-2.157c0-0.609 0.147-1.070 0.442-1.383s0.788-0.469 1.478-0.467c0.686 0 1.177 0.156 1.471 0.467 0.295 0.313 0.444 0.774 0.444 1.383v2.157c0 0.609-0.15 1.076-0.449 1.397s-0.788 0.482-1.466 0.482c-0.679 0-1.181-0.163-1.478-0.48zM40.605 14.789c0.106-0.2 0.154-0.419 0.14-0.638v-2.64c0.014-0.215-0.034-0.43-0.138-0.626-0.059-0.076-0.142-0.135-0.238-0.172s-0.203-0.050-0.308-0.037c-0.105-0.013-0.212 0-0.308 0.037s-0.18 0.096-0.24 0.172c-0.106 0.195-0.154 0.41-0.14 0.626v2.653c-0.015 0.219 0.033 0.439 0.14 0.638 0.068 0.067 0.152 0.121 0.246 0.158s0.196 0.056 0.3 0.056c0.103 0 0.206-0.019 0.3-0.056s0.178-0.091 0.246-0.158v-0.012z"></path>
<path d="M43.38 9.963h1.256l0.945 3.979 0.966-3.979h1.222l0.123 5.743h-0.904l-0.097-3.992-0.932 3.992h-0.725l-0.966-4.006-0.089 4.006h-0.913l0.114-5.743z"></path>
<path d="M49.301 9.963h1.957c1.127 0 1.691 0.544 1.691 1.631 0 1.041-0.593 1.561-1.78 1.56h-0.667v2.553h-1.208l0.007-5.743zM50.973 12.418c0.119 0.013 0.24 0.004 0.355-0.028s0.22-0.084 0.309-0.154c0.139-0.194 0.2-0.422 0.174-0.649 0.006-0.175-0.013-0.35-0.058-0.521-0.017-0.057-0.047-0.111-0.089-0.158s-0.093-0.086-0.153-0.116c-0.168-0.069-0.353-0.101-0.539-0.092h-0.469v1.716h0.469z"></path>
<path d="M54.691 9.963h1.297l1.331 5.743h-1.126l-0.263-1.324h-1.157l-0.271 1.324h-1.143l1.331-5.743zM55.8 13.717l-0.452-2.411-0.452 2.411h0.903z"></path>
<path d="M58.395 9.963h0.846l1.619 3.276v-3.276h1.003v5.743h-0.804l-1.628-3.42v3.42h-1.036l0.002-5.743z"></path>
<path d="M64.209 13.517l-1.346-3.545h1.133l0.821 2.277 0.771-2.277h1.109l-1.329 3.545v2.19h-1.16v-2.19z"></path>
<path d="M35.589 18.218v0.3h-0.986v2.334h-0.413v-2.334h-0.99v-0.3h2.389z"></path>
<path d="M38.679 20.852h-0.319c-0.032 0.002-0.064-0.007-0.089-0.025-0.024-0.015-0.043-0.036-0.053-0.060l-0.285-0.626h-1.367l-0.285 0.626c-0.008 0.026-0.023 0.050-0.044 0.071-0.025 0.017-0.057 0.026-0.089 0.025h-0.319l1.208-2.634h0.42l1.222 2.624zM36.679 19.874h1.14l-0.483-1.072c-0.036-0.081-0.066-0.164-0.089-0.248-0.017 0.050-0.031 0.098-0.046 0.14l-0.044 0.11-0.478 1.070z"></path>
<path d="M40.762 20.593c0.076 0.003 0.151 0.003 0.227 0 0.065-0.006 0.13-0.016 0.193-0.031 0.059-0.012 0.117-0.029 0.174-0.048 0.053-0.019 0.106-0.042 0.162-0.065v-0.592h-0.483c-0.012 0.001-0.024-0.001-0.035-0.005s-0.021-0.009-0.030-0.016c-0.008-0.006-0.014-0.013-0.018-0.022s-0.006-0.017-0.006-0.026v-0.202h0.937v1.010c-0.077 0.047-0.157 0.089-0.242 0.125-0.086 0.037-0.176 0.067-0.268 0.090-0.099 0.025-0.2 0.043-0.302 0.054-0.117 0.011-0.235 0.017-0.353 0.017-0.208 0.002-0.415-0.032-0.609-0.098-0.181-0.063-0.345-0.156-0.483-0.275-0.134-0.12-0.24-0.262-0.312-0.417-0.076-0.175-0.114-0.36-0.111-0.547-0.003-0.188 0.034-0.374 0.109-0.551 0.069-0.156 0.176-0.298 0.312-0.417 0.138-0.119 0.302-0.212 0.483-0.273 0.207-0.067 0.426-0.1 0.647-0.098 0.112-0 0.225 0.008 0.336 0.023 0.098 0.014 0.195 0.036 0.288 0.067 0.084 0.027 0.165 0.062 0.242 0.104 0.074 0.041 0.144 0.087 0.21 0.138l-0.116 0.163c-0.009 0.015-0.023 0.027-0.039 0.036s-0.036 0.014-0.055 0.014c-0.027-0.001-0.053-0.008-0.075-0.021-0.036-0.017-0.075-0.038-0.118-0.063-0.051-0.028-0.106-0.052-0.162-0.071-0.072-0.025-0.146-0.044-0.222-0.058-0.101-0.016-0.204-0.024-0.307-0.023-0.159-0.002-0.318 0.023-0.466 0.073-0.134 0.047-0.256 0.118-0.355 0.209-0.1 0.095-0.177 0.206-0.225 0.327-0.108 0.285-0.108 0.593 0 0.878 0.053 0.124 0.135 0.237 0.242 0.332 0.099 0.090 0.219 0.162 0.353 0.209 0.154 0.046 0.316 0.063 0.478 0.052z"></path>
<path d="M44.612 20.551h1.319v0.3h-1.722v-2.634h0.413l-0.010 2.334z"></path>
<path d="M47.304 20.852h-0.413v-2.634h0.413v2.634z"></path>
<path d="M48.84 18.23c0.025 0.012 0.046 0.028 0.063 0.048l1.766 1.986c-0.002-0.031-0.002-0.063 0-0.094 0-0.029 0-0.058 0-0.085v-1.877h0.36v2.645h-0.208c-0.031 0.002-0.062-0.003-0.089-0.015-0.025-0.013-0.047-0.030-0.065-0.050l-1.764-1.983c0 0.031 0 0.060 0 0.090s0 0.056 0 0.081v1.877h-0.345v-2.634h0.215c0.023 0 0.046 0.004 0.068 0.012z"></path>
<path d="M54.070 18.218v0.29h-1.464v0.87h1.186v0.279h-1.186v0.899h1.464v0.29h-1.889v-2.628h1.889z"></path>
<path d="M10.782 1.95l18.343 4.497v15.757l-18.343-4.495v-15.759zM9.605 0.607v17.867l20.694 5.074v-17.865l-20.694-5.076z"></path>
<path d="M20.696 31.843l-20.696-5.078v-17.866l20.696 5.076v17.868z"></path>
<path d="M9.948 1.748l18.104 4.44-7.699 6.649-18.106-4.442 7.702-6.647zM9.605 0.607l-9.605 8.292 20.696 5.076 9.603-8.292-20.694-5.076z"></path>
<path d="M21.861 30.838l8.438-7.287-8.438-2.071v9.358z"></path>
</symbol>
<symbol id="icon-cliente-4" viewBox="0 0 65 32">
<path d="M10.016 10.049h-0.002c-1.827 0-3.308 1.316-3.308 2.94v0.002c0 1.624 1.481 2.94 3.308 2.94h0.002c1.827 0 3.308-1.316 3.308-2.94v-0.002c0-1.624-1.481-2.94-3.308-2.94z"></path>
<path d="M34.434 9.11c-0.005-2.255-1.015-4.417-2.81-6.012s-4.226-2.493-6.764-2.498v0c-2.538 0.004-4.972 0.902-6.767 2.497s-2.806 3.757-2.811 6.013v12.437c0 0 19.149-1.895 19.151-12.434v-0.002z"></path>
<path d="M0 25.628c0.005 1.569 0.708 3.073 1.956 4.183s2.94 1.735 4.706 1.74c1.765-0.005 3.457-0.63 4.705-1.739s1.952-2.613 1.957-4.182v-8.653c0 0-13.325 1.32-13.325 8.652zM6.662 27.178c-0.345 0-0.682-0.091-0.969-0.261s-0.511-0.413-0.643-0.696c-0.132-0.283-0.167-0.595-0.099-0.896s0.233-0.577 0.477-0.794c0.244-0.217 0.555-0.364 0.893-0.424s0.689-0.029 1.008 0.088c0.319 0.117 0.591 0.316 0.783 0.571s0.294 0.555 0.294 0.861c0.001 0.204-0.044 0.406-0.131 0.595s-0.216 0.36-0.378 0.505c-0.162 0.145-0.355 0.259-0.567 0.338s-0.439 0.119-0.669 0.119v-0.006z"></path>
<path d="M18.842 24.402v3.25h-0.67v-3.25h0.67zM20.137 25.791v0.522h-1.478v-0.522h1.478zM20.293 24.402v0.525h-1.634v-0.525h1.634zM23.351 25.952v0.154c0 0.247-0.033 0.469-0.1 0.665s-0.161 0.364-0.284 0.502c-0.122 0.137-0.268 0.242-0.438 0.315-0.168 0.073-0.355 0.109-0.56 0.109-0.204 0-0.391-0.036-0.56-0.109-0.168-0.073-0.314-0.178-0.438-0.315-0.123-0.138-0.22-0.306-0.288-0.502-0.067-0.196-0.101-0.418-0.101-0.665v-0.154c0-0.248 0.034-0.47 0.101-0.665 0.067-0.196 0.161-0.364 0.283-0.502 0.123-0.138 0.269-0.244 0.438-0.317 0.17-0.073 0.356-0.109 0.56-0.109 0.205 0 0.392 0.037 0.56 0.109 0.17 0.073 0.316 0.179 0.438 0.317 0.123 0.138 0.219 0.306 0.286 0.502 0.068 0.195 0.103 0.417 0.103 0.665zM22.675 26.106v-0.158c0-0.173-0.016-0.324-0.047-0.455s-0.077-0.241-0.138-0.33c-0.061-0.089-0.135-0.156-0.223-0.201-0.088-0.046-0.188-0.069-0.301-0.069s-0.214 0.023-0.301 0.069c-0.086 0.045-0.16 0.112-0.221 0.201-0.059 0.089-0.105 0.199-0.136 0.33s-0.047 0.283-0.047 0.455v0.158c0 0.171 0.016 0.323 0.047 0.455 0.031 0.131 0.077 0.242 0.138 0.333 0.061 0.089 0.135 0.157 0.223 0.203s0.188 0.069 0.301 0.069c0.113 0 0.213-0.023 0.301-0.069s0.161-0.114 0.221-0.203c0.059-0.091 0.105-0.202 0.136-0.333 0.031-0.132 0.047-0.284 0.047-0.455zM25.525 26.802c0-0.058-0.009-0.11-0.027-0.156-0.016-0.048-0.048-0.091-0.094-0.13-0.046-0.040-0.111-0.080-0.194-0.118s-0.191-0.079-0.324-0.121c-0.147-0.048-0.287-0.101-0.42-0.161-0.131-0.059-0.247-0.129-0.348-0.208-0.1-0.080-0.178-0.173-0.237-0.279-0.057-0.106-0.085-0.228-0.085-0.368 0-0.135 0.030-0.258 0.089-0.368 0.059-0.112 0.143-0.207 0.25-0.286 0.107-0.080 0.234-0.142 0.379-0.185 0.147-0.043 0.309-0.065 0.484-0.065 0.24 0 0.449 0.043 0.627 0.129s0.317 0.205 0.415 0.355c0.1 0.15 0.15 0.322 0.15 0.516h-0.665c0-0.095-0.020-0.178-0.060-0.25-0.039-0.073-0.098-0.13-0.179-0.172-0.079-0.042-0.179-0.062-0.299-0.062-0.116 0-0.213 0.018-0.29 0.054-0.077 0.034-0.135 0.081-0.174 0.141-0.039 0.058-0.058 0.123-0.058 0.196 0 0.055 0.013 0.105 0.040 0.15 0.028 0.045 0.070 0.086 0.125 0.125s0.123 0.075 0.203 0.109c0.080 0.034 0.173 0.068 0.279 0.1 0.177 0.054 0.333 0.114 0.466 0.181 0.135 0.067 0.249 0.142 0.339 0.225s0.159 0.178 0.205 0.284c0.046 0.106 0.069 0.225 0.069 0.359 0 0.141-0.028 0.268-0.083 0.379s-0.135 0.206-0.239 0.284-0.228 0.136-0.373 0.176c-0.144 0.040-0.306 0.060-0.484 0.060-0.161 0-0.319-0.021-0.475-0.062-0.156-0.043-0.298-0.108-0.426-0.194-0.126-0.086-0.228-0.196-0.304-0.33s-0.114-0.292-0.114-0.475h0.672c0 0.101 0.016 0.187 0.047 0.257s0.075 0.126 0.132 0.17c0.058 0.043 0.127 0.074 0.205 0.094 0.080 0.019 0.168 0.029 0.263 0.029 0.116 0 0.211-0.016 0.286-0.049 0.076-0.033 0.132-0.078 0.167-0.136 0.037-0.058 0.056-0.123 0.056-0.196zM28.103 24.402v3.25h-0.667v-3.25h0.667zM29.103 24.402v0.525h-2.652v-0.525h2.652zM31.666 27.13v0.522h-1.73v-0.522h1.73zM30.154 24.402v3.25h-0.67v-3.25h0.67zM31.44 25.726v0.509h-1.504v-0.509h1.504zM31.663 24.402v0.525h-1.728v-0.525h1.728zM32.056 24.402h1.212c0.249 0 0.462 0.037 0.641 0.112 0.18 0.074 0.318 0.185 0.415 0.33s0.145 0.325 0.145 0.538c0 0.174-0.030 0.324-0.089 0.449-0.058 0.123-0.141 0.227-0.248 0.31-0.106 0.082-0.23 0.147-0.373 0.197l-0.212 0.112h-1.054l-0.004-0.522h0.783c0.118 0 0.215-0.021 0.292-0.062s0.135-0.1 0.174-0.174c0.040-0.074 0.060-0.161 0.060-0.259 0-0.104-0.019-0.194-0.058-0.27s-0.097-0.134-0.176-0.174c-0.079-0.040-0.178-0.060-0.297-0.060h-0.542v2.725h-0.67v-3.25zM33.873 27.652l-0.741-1.449 0.708-0.005 0.75 1.422v0.031h-0.717zM37.389 26.494h-0.828v-0.522h0.828c0.128 0 0.232-0.021 0.313-0.062 0.080-0.043 0.139-0.103 0.176-0.179s0.056-0.161 0.056-0.257c0-0.097-0.019-0.187-0.056-0.27s-0.096-0.15-0.176-0.201-0.185-0.076-0.313-0.076h-0.596v2.725h-0.67v-3.25h1.266c0.254 0 0.473 0.046 0.654 0.138 0.183 0.091 0.323 0.216 0.42 0.377s0.145 0.344 0.145 0.551c0 0.21-0.048 0.391-0.145 0.545s-0.237 0.272-0.42 0.355c-0.181 0.083-0.4 0.125-0.654 0.125zM41.251 27.13v0.522h-1.73v-0.522h1.73zM39.739 24.402v3.25h-0.67v-3.25h0.67zM41.025 25.726v0.509h-1.504v-0.509h1.504zM41.248 24.402v0.525h-1.728v-0.525h1.728zM43.139 24.402v3.25h-0.667v-3.25h0.667zM44.139 24.402v0.525h-2.652v-0.525h2.652zM46.701 27.13v0.522h-1.73v-0.522h1.73zM45.19 24.402v3.25h-0.67v-3.25h0.67zM46.476 25.726v0.509h-1.504v-0.509h1.504zM46.699 24.402v0.525h-1.728v-0.525h1.728zM47.092 24.402h1.212c0.249 0 0.462 0.037 0.641 0.112 0.18 0.074 0.318 0.185 0.415 0.33s0.145 0.325 0.145 0.538c0 0.174-0.030 0.324-0.089 0.449-0.058 0.123-0.141 0.227-0.248 0.31-0.106 0.082-0.23 0.147-0.373 0.197l-0.212 0.112h-1.054l-0.005-0.522h0.784c0.118 0 0.215-0.021 0.292-0.062s0.135-0.1 0.174-0.174c0.040-0.074 0.060-0.161 0.060-0.259 0-0.104-0.019-0.194-0.058-0.27s-0.097-0.134-0.176-0.174c-0.079-0.040-0.178-0.060-0.297-0.060h-0.542v2.725h-0.67v-3.25zM48.909 27.652l-0.741-1.449 0.708-0.005 0.75 1.422v0.031h-0.717zM51.713 26.802c0-0.058-0.009-0.11-0.027-0.156-0.016-0.048-0.048-0.091-0.094-0.13-0.046-0.040-0.111-0.080-0.194-0.118s-0.191-0.079-0.324-0.121c-0.147-0.048-0.287-0.101-0.42-0.161-0.131-0.059-0.247-0.129-0.348-0.208-0.1-0.080-0.178-0.173-0.237-0.279-0.057-0.106-0.085-0.228-0.085-0.368 0-0.135 0.030-0.258 0.089-0.368 0.059-0.112 0.143-0.207 0.25-0.286 0.107-0.080 0.234-0.142 0.379-0.185 0.147-0.043 0.309-0.065 0.484-0.065 0.24 0 0.449 0.043 0.627 0.129s0.317 0.205 0.415 0.355c0.1 0.15 0.15 0.322 0.15 0.516h-0.665c0-0.095-0.020-0.178-0.060-0.25-0.039-0.073-0.098-0.13-0.179-0.172-0.079-0.042-0.179-0.062-0.299-0.062-0.116 0-0.213 0.018-0.29 0.054-0.077 0.034-0.135 0.081-0.174 0.141-0.039 0.058-0.058 0.123-0.058 0.196 0 0.055 0.013 0.105 0.040 0.15 0.028 0.045 0.070 0.086 0.125 0.125s0.123 0.075 0.203 0.109c0.080 0.034 0.173 0.068 0.279 0.1 0.177 0.054 0.333 0.114 0.467 0.181 0.135 0.067 0.249 0.142 0.339 0.225s0.159 0.178 0.205 0.284c0.046 0.106 0.069 0.225 0.069 0.359 0 0.141-0.028 0.268-0.083 0.379s-0.135 0.206-0.239 0.284-0.228 0.136-0.373 0.176c-0.144 0.040-0.306 0.060-0.484 0.060-0.161 0-0.319-0.021-0.475-0.062-0.156-0.043-0.298-0.108-0.426-0.194-0.126-0.086-0.228-0.196-0.304-0.33s-0.114-0.292-0.114-0.475h0.672c0 0.101 0.016 0.187 0.047 0.257s0.075 0.126 0.132 0.17c0.058 0.043 0.127 0.074 0.205 0.094 0.080 0.019 0.168 0.029 0.263 0.029 0.116 0 0.211-0.016 0.286-0.049 0.076-0.033 0.132-0.078 0.167-0.136 0.037-0.058 0.056-0.123 0.056-0.196z"></path>
</symbol>
<symbol id="icon-cliente-1" viewBox="0 0 64 32">
<path d="M22.943 4.279l4.231 4.005-7.854-0.005v19.434h20.528v-7.43l4.226 4.001v-20.005h-21.132zM39.663 19.813l-11.997-11.357h11.997v11.357zM35.938 24.871h-13.369v-13.070h0.945v12.185h12.424v0.885zM25.726 30.301l-0.494 1.017-0.494-1.017h-0.414l0.721 1.356v0.79h0.374v-0.79l0.719-1.356h-0.413zM26.347 32.447l0.174-0.5h0.831l0.175 0.5h0.389l-0.812-2.146h-0.335l-0.811 2.146h0.388zM26.936 30.757l0.311 0.89h-0.622l0.311-0.89zM28.903 31.595c-0.054 0.083-0.081 0.173-0.081 0.273 0 0.181 0.063 0.328 0.19 0.441 0.128 0.112 0.298 0.168 0.51 0.168s0.395-0.057 0.548-0.172l0.121 0.143h0.416l-0.315-0.373c0.124-0.169 0.186-0.386 0.186-0.65h-0.311c0 0.144-0.030 0.276-0.090 0.394l-0.414-0.489 0.146-0.106c0.103-0.075 0.177-0.149 0.223-0.224s0.068-0.158 0.068-0.248c0-0.136-0.050-0.249-0.15-0.34-0.099-0.092-0.227-0.139-0.383-0.139-0.173 0-0.311 0.049-0.413 0.147s-0.153 0.23-0.153 0.398c0 0.069 0.016 0.14 0.049 0.214s0.092 0.163 0.175 0.268c-0.159 0.114-0.266 0.213-0.32 0.296zM29.871 32.070c-0.105 0.081-0.218 0.121-0.339 0.121-0.107 0-0.193-0.031-0.256-0.093s-0.096-0.142-0.096-0.242c0-0.115 0.059-0.217 0.177-0.307l0.046-0.032 0.469 0.553zM29.486 31.119c-0.101-0.125-0.152-0.228-0.152-0.311 0-0.072 0.021-0.131 0.062-0.178s0.097-0.071 0.167-0.071c0.065 0 0.118 0.020 0.161 0.060s0.063 0.087 0.063 0.143c0 0.084-0.030 0.154-0.091 0.208l-0.046 0.037-0.164 0.112zM32.98 32.285c0.147-0.129 0.232-0.308 0.254-0.537h-0.371c-0.020 0.153-0.066 0.263-0.14 0.329s-0.184 0.099-0.33 0.099c-0.16 0-0.282-0.061-0.366-0.183s-0.124-0.299-0.124-0.531v-0.19c0.002-0.229 0.046-0.402 0.133-0.52 0.087-0.119 0.212-0.178 0.374-0.178 0.14 0 0.245 0.034 0.317 0.103 0.073 0.068 0.118 0.179 0.136 0.333h0.371c-0.024-0.235-0.108-0.417-0.252-0.545s-0.335-0.193-0.572-0.193c-0.176 0-0.331 0.042-0.466 0.125-0.134 0.084-0.236 0.202-0.308 0.357s-0.108 0.333-0.108 0.535v0.201c0.003 0.198 0.040 0.371 0.111 0.52s0.171 0.265 0.301 0.346c0.131 0.081 0.282 0.121 0.453 0.121 0.245 0 0.441-0.064 0.588-0.192zM35.172 31.984c0.073-0.159 0.109-0.344 0.109-0.554v-0.119c-0.001-0.209-0.038-0.393-0.112-0.55s-0.178-0.279-0.314-0.363c-0.135-0.084-0.289-0.127-0.464-0.127s-0.33 0.043-0.466 0.128c-0.135 0.084-0.239 0.207-0.314 0.367s-0.111 0.345-0.111 0.554v0.121c0.001 0.205 0.038 0.387 0.112 0.544s0.18 0.279 0.315 0.364c0.137 0.084 0.292 0.127 0.466 0.127 0.176 0 0.331-0.042 0.466-0.127 0.136-0.086 0.24-0.207 0.313-0.366zM34.772 30.771c0.090 0.127 0.136 0.309 0.136 0.547v0.112c0 0.242-0.045 0.426-0.134 0.551s-0.215 0.189-0.38 0.189c-0.163 0-0.291-0.064-0.383-0.193s-0.137-0.311-0.137-0.547v-0.124c0.002-0.231 0.048-0.409 0.139-0.535 0.091-0.127 0.218-0.19 0.379-0.19 0.165 0 0.292 0.063 0.382 0.19z"></path>
</symbol>
</defs>
</svg>
